<svg id="facebook-logo-in-circular-button-outlined-social-symbol" xmlns="http://www.w3.org/2000/svg" width="40.335" height="40.335" viewBox="0 0 40.335 40.335">
  <g id="Group_223" data-name="Group 223">
    <path id="Path_379" data-name="Path 379" d="M40.335,20.167A20.167,20.167,0,1,0,20.167,40.335,20.168,20.168,0,0,0,40.335,20.167Zm-38.5,0A18.334,18.334,0,1,1,20.167,38.5,18.334,18.334,0,0,1,1.833,20.167Z" fill="#46c2ff"/>
    <path id="Path_380" data-name="Path 380" d="M230.015,153.105v-11.64h3.841l.607-3.857h-4.448v-1.934c0-1.007.33-1.967,1.775-1.967h2.888v-3.85h-4.1c-3.447,0-4.387,2.27-4.387,5.416v2.334h-2.365v3.859h2.365v11.64Z" transform="translate(-209.073 -121.298)" fill="#46c2ff"/>
  </g>
</svg>
