<svg xmlns="http://www.w3.org/2000/svg" xmlns:xlink="http://www.w3.org/1999/xlink" width="129.111" height="137.71" viewBox="0 0 129.111 137.71">
  <defs>
    <linearGradient id="linear-gradient" x1="0.29" y1="0.983" x2="1.064" y2="-0.177" gradientUnits="objectBoundingBox">
      <stop offset="0" stop-color="#d500f9"/>
      <stop offset="0.99" stop-color="#2979ff"/>
    </linearGradient>
    <linearGradient id="linear-gradient-2" x1="0.197" y1="0.963" x2="0.735" y2="-0.133" xlink:href="#linear-gradient"/>
    <linearGradient id="linear-gradient-3" x1="0.265" y1="0.854" x2="0.772" y2="0.09" gradientUnits="objectBoundingBox">
      <stop offset="0" stop-color="#ea80fc"/>
      <stop offset="0.99" stop-color="#40c4ff"/>
    </linearGradient>
  </defs>
  <g id="Group_2460" data-name="Group 2460" transform="translate(-117.984 -10.368)">
    <g id="Group_2369" data-name="Group 2369" transform="matrix(-0.966, -0.259, 0.259, -0.966, 221.861, 148.077)">
      <g id="Group_2368" data-name="Group 2368" transform="translate(0 0)" style="isolation: isolate">
        <path id="Path_1549" data-name="Path 1549" d="M62.805,35.852c.067-.236.14-.472.2-.709.074-.284.137-.57.2-.855.055-.23.115-.46.165-.691.063-.293.114-.587.169-.88.042-.225.091-.448.128-.672.052-.307.091-.614.134-.921.03-.211.066-.423.092-.635.038-.311.062-.622.09-.932.019-.209.045-.418.06-.626.024-.337.035-.674.048-1.011.007-.181.022-.362.026-.543q.017-.777-.005-1.551c-.2-7.051-2.876-12.784-7.178-16.645L46.712,0c4.3,3.861,6.973,9.594,7.178,16.646q.022.773,0,1.551c0,.183-.018.366-.026.549-.014.335-.024.67-.048,1.006-.015.211-.041.421-.061.632-.028.308-.052.617-.09.925-.026.213-.062.426-.092.639-.043.306-.082.611-.133.917-.038.224-.086.448-.128.672-.055.294-.106.587-.169.88-.05.232-.111.464-.165.7-.067.284-.129.568-.2.851-.063.239-.135.475-.2.713-.078.275-.151.551-.236.825-.074.24-.158.479-.237.718-.088.269-.173.537-.267.8q-.308.869-.66,1.729c-.069.169-.144.336-.215.5-.173.409-.35.816-.537,1.22q-.153.334-.313.665-.19.393-.388.784-.18.355-.368.709-.205.387-.419.772c-.138.247-.277.493-.419.737q-.177.3-.357.6-.234.386-.477.769c-.124.2-.248.393-.375.588-.106.162-.216.321-.324.482-.473.7-.961,1.4-1.474,2.078-.033.043-.067.085-.1.128-.474.623-.969,1.233-1.475,1.833-.1.115-.192.231-.29.345q-.771.9-1.59,1.753c-.109.115-.221.228-.332.341-.557.572-1.125,1.133-1.711,1.676l-.065.062c-.625.576-1.27,1.129-1.925,1.668-.15.123-.3.249-.45.37-.176.141-.354.279-.532.418q-.368.285-.742.565-.275.2-.552.4c-.235.169-.473.335-.712.5s-.474.324-.714.482-.459.3-.69.446-.487.3-.732.452c-.211.128-.425.254-.639.377-.385.223-.772.438-1.164.648-.175.094-.35.191-.526.282-.557.288-1.118.568-1.687.828l-.018.009c-.67.307-1.349.587-2.034.853-.171.067-.342.132-.514.2-.689.257-1.384.5-2.087.717-.561.171-1.118.323-1.672.462-.178.045-.354.082-.531.124-.378.089-.755.173-1.129.248-.2.04-.4.076-.607.112q-.525.093-1.045.168c-.2.029-.4.057-.6.082-.36.044-.717.079-1.073.11-.176.015-.353.034-.527.046q-.705.048-1.4.061c-.055,0-.11.005-.165.006-.515.006-1.025,0-1.529-.027-.155-.007-.308-.021-.461-.03-.333-.021-.662-.046-.99-.079-.363-.037-.72-.087-1.076-.138-.2-.03-.406-.053-.606-.088-.425-.073-.843-.161-1.257-.256-.124-.028-.253-.049-.377-.08s-.255-.072-.383-.105c-.346-.091-.691-.184-1.029-.29-.174-.055-.343-.118-.515-.176-.29-.1-.581-.2-.865-.308-.142-.055-.282-.115-.423-.173q-.434-.178-.857-.373c-.146-.068-.292-.136-.436-.207q-.461-.226-.909-.474c-.088-.049-.178-.094-.266-.145q-.574-.328-1.123-.691c-.078-.052-.155-.107-.232-.161q-.436-.3-.854-.614c-.1-.075-.2-.15-.294-.226-.339-.267-.673-.541-.994-.83l10.228,9.18q.376.338.77.657c.073.059.15.114.224.172.1.077.2.152.294.227q.419.318.854.614c.078.053.154.108.233.16.032.021.062.044.094.065.335.219.679.426,1.029.626.087.05.178.1.266.145.2.113.406.228.614.334.1.049.2.092.3.14.144.07.289.139.435.206.282.131.568.255.857.374.141.058.281.117.423.173.065.025.126.054.191.078.221.083.449.153.674.23.172.059.341.121.515.176.34.107.687.2,1.035.292.126.033.249.072.377.1l.043.012c.111.027.228.044.34.069.413.094.828.182,1.25.254.2.034.407.059.61.088.356.051.712.1,1.074.138.074.008.146.022.221.028.254.024.512.035.768.051.154.01.306.024.462.03.5.022,1.013.034,1.529.027.054,0,.11,0,.165-.006q.693-.013,1.4-.06c.175-.012.35-.031.525-.046.357-.03.714-.065,1.075-.11.2-.024.4-.053.6-.082q.521-.075,1.046-.169c.2-.036.4-.072.607-.112.374-.074.751-.158,1.128-.247.177-.041.354-.079.531-.124.554-.139,1.111-.292,1.671-.463.7-.215,1.4-.46,2.087-.717.172-.064.343-.13.514-.2.684-.267,1.364-.547,2.034-.854h0l.017-.008c.568-.261,1.129-.54,1.686-.828.178-.092.352-.189.529-.284q.584-.314,1.16-.646c.1-.056.2-.106.291-.163.119-.07.233-.146.351-.217q.366-.221.728-.45t.695-.448q.358-.236.711-.481c.12-.082.243-.16.362-.244s.233-.171.35-.255q.278-.2.552-.4.374-.279.742-.565c.178-.138.356-.276.531-.417.08-.064.162-.125.242-.19s.138-.122.209-.181c.655-.539,1.3-1.091,1.925-1.667l.014-.013c.018-.016.035-.035.053-.051.585-.542,1.152-1.1,1.709-1.674.067-.068.138-.131.2-.2.044-.045.084-.095.128-.141q.817-.856,1.589-1.752c.038-.043.078-.084.115-.127.062-.072.117-.149.178-.221.506-.6,1-1.208,1.473-1.83.026-.034.054-.065.079-.1.008-.01.014-.02.022-.03.513-.679,1-1.374,1.472-2.077.051-.074.107-.146.157-.221s.112-.177.169-.265c.126-.194.25-.388.373-.583q.243-.384.478-.773.181-.3.356-.6c.074-.126.151-.25.223-.377s.13-.242.2-.362q.214-.383.419-.77.189-.354.369-.711.2-.39.387-.783c.063-.131.132-.26.194-.391.042-.091.078-.183.121-.274.186-.405.364-.812.537-1.221.071-.168.146-.335.214-.5.233-.573.455-1.149.66-1.729l.012-.03c.091-.259.171-.52.257-.779.078-.238.162-.476.236-.715C62.654,36.4,62.728,36.128,62.805,35.852Z" transform="translate(23.616 22.382)" fill="url(#linear-gradient)"/>
        <path id="Path_1550" data-name="Path 1550" d="M60.325,10.209c.126-.027.253-.052.38-.078.68-.139,1.358-.267,2.03-.375l.054-.008c.662-.105,1.32-.192,1.974-.268.119-.014.237-.029.356-.041q.96-.1,1.908-.166l.372-.021c.648-.037,1.293-.063,1.93-.071h.092c.622-.006,1.237,0,1.848.026l.329.011q.911.04,1.806.119c.161.014.321.03.481.045q.389.04.774.086c.18.022.361.045.54.069q.384.052.765.113c.174.027.35.055.524.084.261.045.521.093.78.144.162.031.325.061.486.094.287.06.572.124.855.191.124.028.248.055.371.084.627.153,1.244.325,1.854.509.091.028.182.053.272.082q.884.275,1.742.6c.105.039.211.078.315.118.509.195,1.013.4,1.507.616l.186.085q.686.307,1.353.643l.273.136q.663.342,1.306.711c.091.052.18.107.271.16q.546.322,1.079.664c.092.059.184.117.276.177q.6.392,1.174.81c.077.056.152.115.229.171q.477.353.94.722c.1.081.2.161.3.244.357.293.71.591,1.054.9l0,0h0L82.887,8.413c-.345-.31-.7-.609-1.058-.9-.043-.035-.083-.072-.126-.107s-.118-.089-.175-.135q-.463-.37-.94-.722c-.078-.057-.153-.116-.231-.173q-.577-.418-1.173-.81c-.032-.021-.062-.044-.093-.064-.059-.039-.122-.073-.182-.112q-.531-.342-1.079-.664c-.091-.053-.18-.108-.271-.161q-.644-.369-1.307-.711c-.033-.016-.064-.036-.1-.052-.057-.03-.117-.055-.174-.083q-.669-.337-1.357-.645c-.061-.028-.122-.057-.184-.084-.495-.217-1-.421-1.506-.615-.055-.021-.107-.046-.163-.067s-.1-.034-.155-.053q-.857-.318-1.74-.594c-.091-.028-.183-.055-.274-.082-.609-.184-1.225-.356-1.852-.508l-.043-.012c-.11-.027-.223-.049-.334-.074-.282-.065-.564-.13-.849-.189C67.363.759,67.2.729,67.038.7c-.259-.05-.518-.1-.78-.144C66.084.525,65.909.5,65.734.47,65.48.43,65.226.392,64.97.358c-.18-.024-.36-.047-.541-.069Q64.044.241,63.655.2c-.108-.011-.214-.026-.323-.035-.051,0-.1-.006-.156-.011Q62.281.078,61.369.039c-.109-.005-.22-.007-.329-.011C60.429.006,59.814,0,59.193,0H59.1c-.637.008-1.281.034-1.929.071L56.8.094q-.946.062-1.906.165L54.533.3c-.653.076-1.31.162-1.972.267l-.054.009c-.672.107-1.349.236-2.028.374L50.1,1.03q-.989.209-1.987.464l-.38.1c-.695.182-1.391.375-2.091.589-.729.223-1.453.466-2.173.719-.213.075-.423.153-.635.231q-.8.291-1.588.606c-.209.084-.419.165-.628.252-.7.289-1.4.589-2.093.906L38.51,4.9l-.005,0-.033.016c-.872.4-1.733.827-2.587,1.27-.273.142-.541.291-.812.436q-.9.483-1.787.995c-.148.086-.3.163-.448.25-.181.107-.357.223-.537.332q-.564.341-1.122.694-.535.339-1.065.687-.552.364-1.1.74c-.185.127-.375.247-.558.377s-.356.263-.537.392q-.427.306-.849.62-.574.427-1.139.867c-.275.213-.549.426-.821.644-.123.1-.25.192-.372.292-.284.23-.562.471-.843.707-.209.175-.42.348-.627.526q-.772.664-1.526,1.352c-.091.083-.185.163-.275.246l-.035.032q-.857.79-1.686,1.611c-.167.164-.328.332-.493.5-.282.284-.568.565-.846.853-.115.119-.225.242-.338.362-.193.2-.383.409-.574.614q-.541.584-1.069,1.179c-.184.207-.367.414-.548.622-.1.111-.2.219-.291.33-.281.329-.554.665-.828,1-.139.169-.281.335-.418.5q-.721.892-1.414,1.8l-.048.066c-.1.139-.2.281-.308.42q-.563.756-1.106,1.524c-.163.232-.32.467-.48.7-.2.29-.4.578-.6.871-.088.132-.169.268-.256.4-.195.3-.385.6-.576.9q-.373.591-.735,1.187-.278.459-.547.923c-.114.2-.234.388-.346.584s-.2.369-.3.552q-.329.59-.645,1.185-.288.543-.566,1.09-.3.6-.6,1.2c-.1.2-.2.4-.3.606-.065.14-.121.281-.184.421-.287.622-.56,1.248-.826,1.876-.109.257-.223.514-.329.773-.358.881-.7,1.766-1.014,2.658l-.019.048c-.14.4-.263.8-.394,1.2-.121.365-.248.728-.362,1.094-.13.425-.244.853-.365,1.279-.1.361-.213.722-.308,1.085-.112.426-.205.854-.307,1.281-.086.365-.182.73-.261,1.1-.092.428-.166.857-.247,1.285-.07.367-.149.733-.211,1.1-.076.45-.132.9-.2,1.351-.049.347-.108.693-.149,1.04-.059.491-.1.982-.143,1.474-.028.306-.066.612-.088.919-.039.545-.057,1.089-.078,1.633-.009.253-.03.506-.036.758q-.027,1.194.008,2.384c.314,10.846,4.423,19.663,11.038,25.6L21.285,97.5c-6.615-5.938-10.724-14.754-11.038-25.6q-.034-1.19-.007-2.385c.006-.263.027-.528.038-.792.02-.533.038-1.065.076-1.6.024-.329.065-.657.095-.985.043-.469.08-.938.136-1.407.043-.356.1-.711.153-1.067.063-.441.118-.883.192-1.324.061-.366.14-.732.209-1.1.082-.429.156-.859.248-1.288.08-.369.175-.736.263-1.1.1-.425.194-.85.3-1.273.1-.366.207-.73.311-1.094.12-.424.233-.848.363-1.27.113-.365.24-.728.36-1.091.137-.417.268-.834.414-1.249.315-.891.657-1.776,1.015-2.657.105-.259.22-.516.329-.774.265-.628.539-1.254.826-1.876q.237-.515.484-1.025.291-.6.6-1.205.278-.547.566-1.089.316-.6.646-1.188.316-.568.643-1.132c.181-.31.363-.619.549-.927q.362-.6.736-1.187c.19-.3.379-.6.574-.9.28-.428.566-.852.855-1.274.159-.233.316-.467.478-.7q.541-.768,1.1-1.522c.1-.14.2-.283.309-.423q.714-.945,1.462-1.868c.137-.169.279-.335.417-.5q.552-.67,1.119-1.329c.181-.209.365-.416.549-.622q.527-.595,1.068-1.179.285-.309.575-.616.582-.613,1.181-1.212c.165-.167.329-.335.5-.5q.847-.835,1.721-1.642c.088-.082.18-.16.269-.241q.756-.689,1.531-1.357c.207-.178.417-.35.626-.525.4-.337.807-.672,1.217-1,.271-.217.545-.429.819-.642q.566-.439,1.141-.868.423-.314.849-.621.543-.389,1.093-.767t1.1-.741q.528-.349,1.064-.687.559-.354,1.123-.695.489-.3.983-.581.887-.515,1.79-1c.269-.145.537-.294.809-.435.857-.444,1.72-.872,2.594-1.274l.03-.015.019-.009c.689-.316,1.385-.614,2.085-.9.209-.086.421-.169.631-.253q.787-.313,1.582-.6c.213-.078.426-.157.639-.232.72-.253,1.443-.5,2.172-.718.7-.214,1.4-.407,2.09-.589.127-.034.254-.068.381-.1Q59.336,10.419,60.325,10.209Z" fill="url(#linear-gradient-2)"/>
        <g id="Group_2367" data-name="Group 2367" transform="translate(17.852 15.878)">
          <path id="Path_1551" data-name="Path 1551" d="M45.638,2.184C71.523-5.731,93.187,8.548,93.924,34.01S74.2,86.635,48.312,94.549.757,88.187.019,62.719,19.746,10.1,45.638,2.184ZM47.844,78.4c16.838-5.147,30.142-22.809,29.662-39.371s-14.563-25.844-31.4-20.7S15.958,41.144,16.438,57.7,31.007,83.548,47.844,78.4" transform="translate(0 0)" fill="url(#linear-gradient-3)"/>
        </g>
      </g>
    </g>
  </g>
</svg>
